<?xml version="1.0" standalone="no"?><!DOCTYPE svg PUBLIC "-//W3C//DTD SVG 1.1//EN" "http://www.w3.org/Graphics/SVG/1.1/DTD/svg11.dtd"><svg t="1583823762466" class="icon" viewBox="0 0 1024 1024" version="1.1" xmlns="http://www.w3.org/2000/svg" p-id="8094" xmlns:xlink="http://www.w3.org/1999/xlink" width="200" height="200"><defs><style type="text/css"></style></defs><path d="M513.81204 263.801367m-254.910518 0a45.157 45.157 0 1 0 509.821036 0 45.157 45.157 0 1 0-509.821036 0Z" p-id="8095"></path><path d="M536.487938 562.833076" p-id="8096"></path><path d="M613.084719 869.841147c0-116.427784 94.367189-210.800617 210.794972-210.800617 54.536185 0 104.172525 20.835634 142.163264 55.157133C934.182668 437.215259 734.412348 473.981036 734.412348 473.981036c-56.37645 46.571114-106.007144 88.242381-214.475502 88.242381-140.938302 0-229.175039-90.082646-229.175039-90.082646-229.180684-8.58602-232.24591 298.422051-232.24591 298.422051l0 134.813495c4.290187 71.081632 53.920882 110.297332 122.552591 110.297332l491.446615 0C634.530011 978.292569 613.084719 926.827255 613.084719 869.841147z" p-id="8097"></path><path d="M958.072238 893.736362c0 1.83462-1.224961 3.059581-3.065226 3.059581l-106.007144 0 0 106.007144c0 1.84591-1.224961 3.065226-3.059581 3.065226l-47.186417 0c-1.83462 0-3.065226-1.219316-3.065226-3.065226l0-106.007144-106.007144 0c-1.83462 0-3.059581-1.224961-3.059581-3.059581l0-47.186417c0-1.83462 1.224961-3.065226 3.059581-3.065226l106.007144 0 0-106.007144c0-1.83462 1.230606-3.059581 3.065226-3.059581l47.186417 0c1.83462 0 3.059581 1.224961 3.059581 3.059581l0 106.007144 106.007144 0c1.840265 0 3.065226 1.230606 3.065226 3.065226L958.072238 893.736362z" p-id="8098"></path></svg>