<?xml version="1.0" standalone="no"?><!DOCTYPE svg PUBLIC "-//W3C//DTD SVG 1.1//EN" "http://www.w3.org/Graphics/SVG/1.1/DTD/svg11.dtd"><svg t="1583680019471" class="icon" viewBox="0 0 1025 1024" version="1.1" xmlns="http://www.w3.org/2000/svg" p-id="2716" xmlns:xlink="http://www.w3.org/1999/xlink" width="200.1953125" height="200"><defs><style type="text/css"></style></defs><path d="M962.225152 0l-347.322218 0c-34.411271 0-62.403516 27.992245-62.403516 62.436603l0 345.336952c0 34.444358 27.992245 62.436603 62.403516 62.436603l347.322218 0c34.444358 0 62.436603-27.992245 62.436603-62.436603l0-345.336952C1024.661755 28.025333 996.66951 0 962.225152 0z" p-id="2717"></path><path d="M410.652191 553.822929l-347.322218 0c-34.444358 0-62.436603 27.992245-62.436603 62.436603L0.89337 961.563397c0 34.444358 28.025333 62.436603 62.436603 62.436603l347.322218 0c34.411271 0 62.436603-27.992245 62.436603-62.436603L473.088794 616.259532C473.088794 581.815174 445.063461 553.822929 410.652191 553.822929z" p-id="2718"></path><path d="M62.436603 471.103528l347.322218 0c34.411271 0 62.436603-27.992245 62.436603-62.436603l0-345.336952c0-34.444358-27.992245-62.436603-62.436603-62.436603l-347.322218 0c-34.411271 0-62.436603 28.025333-62.436603 62.436603l0 345.336952C0 443.078196 28.025333 471.103528 62.436603 471.103528z" p-id="2719"></path><path d="M993.890138 578.969626l-410.619103 0c-17.007109 0-30.771617 13.797596-30.771617 30.771617 0 17.007109 13.797596 30.771617 30.771617 30.771617l410.619103 0c17.007109 0 30.771617-13.797596 30.771617-30.771617C1024.661755 592.767222 1010.897247 578.969626 993.890138 578.969626z" p-id="2720"></path><path d="M993.890138 758.139847l-410.619103 0c-17.007109 0-30.771617 13.764508-30.771617 30.771617s13.797596 30.771617 30.771617 30.771617l410.619103 0c17.007109 0 30.771617-13.764508 30.771617-30.771617S1010.897247 758.139847 993.890138 758.139847z" p-id="2721"></path><path d="M993.890138 937.310069l-410.619103 0c-17.007109 0-30.771617 13.797596-30.771617 30.771617 0 17.007109 13.797596 30.771617 30.771617 30.771617l410.619103 0c17.007109 0 30.771617-13.764508 30.771617-30.771617S1010.897247 937.310069 993.890138 937.310069z" p-id="2722"></path></svg>