<?xml version="1.0" standalone="no"?><!DOCTYPE svg PUBLIC "-//W3C//DTD SVG 1.1//EN" "http://www.w3.org/Graphics/SVG/1.1/DTD/svg11.dtd"><svg t="1583823800245" class="icon" viewBox="0 0 1024 1024" version="1.1" xmlns="http://www.w3.org/2000/svg" p-id="8853" xmlns:xlink="http://www.w3.org/1999/xlink" width="200" height="200"><defs><style type="text/css"></style></defs><path d="M942.057143 792.457143h-61.485714c-4.8 0-8.8 4-8.8 8.8v70.628571H152.114286V152.114286h719.771428v70.628571c0 4.8 4 8.8 8.8 8.8h61.485715c4.8 0 8.8-3.885714 8.8-8.8V108.228571c0-19.428571-15.657143-35.085714-35.085715-35.085714H108.228571c-19.428571 0-35.085714 15.657143-35.085714 35.085714v807.542858c0 19.428571 15.657143 35.085714 35.085714 35.085714h807.542858c19.428571 0 35.085714-15.657143 35.085714-35.085714V801.257143c0-4.914286-4-8.8-8.8-8.8zM957.714286 470.857143H598.857143v-86.857143c0-7.657143-8.914286-12-14.857143-7.2l-162.171429 128a9.142857 9.142857 0 0 0 0 14.4l162.171429 128c6.057143 4.8 14.857143 0.457143 14.857143-7.2v-86.857143h358.857143c5.028571 0 9.142857-4.114286 9.142857-9.142857v-64c0-5.028571-4.114286-9.142857-9.142857-9.142857z" p-id="8854"></path></svg>