<?xml version="1.0" standalone="no"?><!DOCTYPE svg PUBLIC "-//W3C//DTD SVG 1.1//EN" "http://www.w3.org/Graphics/SVG/1.1/DTD/svg11.dtd"><svg t="1583823710545" class="icon" viewBox="0 0 1024 1024" version="1.1" xmlns="http://www.w3.org/2000/svg" p-id="7349" xmlns:xlink="http://www.w3.org/1999/xlink" width="200" height="200"><defs><style type="text/css"></style></defs><path d="M274.976 96.32h748.56v113.52H274.976V96.336z m0 354.96h748.56V564.8H274.976v-113.52z m0 378.88h748.56v113.504H274.976v-113.504zM0.48 152.896c0-48.848 39.12-88.448 87.376-88.448 48.256 0 87.392 39.6 87.392 88.448 0 48.848-39.136 88.464-87.392 88.464-48.256 0-87.376-39.616-87.376-88.464z m0 378.88c0-48.864 39.12-88.464 87.376-88.464 48.256 0 87.392 39.6 87.392 88.464 0 48.848-39.136 88.448-87.392 88.448-48.256 0-87.376-39.6-87.376-88.448z m0 355.328c0-48.848 39.12-88.464 87.376-88.464 48.256 0 87.392 39.616 87.392 88.464s-39.136 88.448-87.392 88.448c-48.256 0-87.376-39.6-87.376-88.448z" p-id="7350"></path></svg>