<?xml version="1.0" standalone="no"?><!DOCTYPE svg PUBLIC "-//W3C//DTD SVG 1.1//EN" "http://www.w3.org/Graphics/SVG/1.1/DTD/svg11.dtd"><svg t="1583680367347" class="icon" viewBox="0 0 1024 1024" version="1.1" xmlns="http://www.w3.org/2000/svg" p-id="5649" xmlns:xlink="http://www.w3.org/1999/xlink" width="200" height="200"><defs><style type="text/css"></style></defs><path d="M326.962 655.431l-88.209-36.51 19.521-84.453c-8.009-6.828-15.524-14.345-22.448-22.457l-84.494 19.565-36.554-88.173 73.58-45.95c-0.85-10.532-0.849-21.172-0.010-31.747l-73.575-45.893 36.505-88.199 84.497 19.519c6.846-8.027 14.356-15.532 22.441-22.442l-19.587-84.511 88.179-36.545 45.938 73.562c10.556-0.84 21.187-0.835 31.749 0.004l45.888-73.58 88.208 36.511-19.52 84.454c8.010 6.826 15.526 14.344 22.449 22.457l84.494-19.564 36.552 88.172-73.58 45.947c0.851 10.534 0.856 21.163 0.012 31.748l73.575 45.894-36.51 88.208-84.482-19.571c-6.83 8.017-14.344 15.534-22.444 22.438l19.597 84.515-88.176 36.546-45.955-73.531c-10.564 0.851-21.189 0.847-31.753 0.010l-45.887 73.575zM265.903 604.942l51.73 21.412 43.19-69.244 7.335 0.871c13.647 1.598 27.488 1.6 41.135-0.006l7.328-0.855 43.242 69.182 51.713-21.445-18.43-79.489 5.779-4.579c10.869-8.614 20.66-18.411 29.096-29.107l4.577-5.812 79.486 18.418 21.411-51.731-69.226-43.183 0.854-7.33c1.612-13.69 1.602-27.522-0.011-41.132l-0.875-7.33 69.24-43.239-21.432-51.719-79.49 18.408-4.577-5.773c-8.628-10.898-18.421-20.688-29.096-29.107l-5.804-4.571 18.362-79.467-51.731-21.411-43.179 69.233-7.331-0.868c-13.657-1.601-27.504-1.597-41.15 0.010l-7.329 0.858-43.228-69.226-51.711 21.445 18.429 79.5-5.786 4.586c-10.837 8.576-20.633 18.379-29.091 29.097l-4.576 5.79-79.498-18.374-21.416 51.741 69.239 43.178-0.86 7.328c-1.608 13.69-1.606 27.532 0.009 41.137l0.871 7.333-69.239 43.237 21.435 51.723 79.486-18.408 4.578 5.774c8.635 10.899 18.424 20.688 29.1 29.1l5.8 4.579-18.36 79.466zM330.035 665.008l-100.223-41.482 19.948-86.303c-5.837-5.213-11.426-10.805-16.688-16.697l-86.342 19.993-41.532-100.183 75.186-46.953c-0.449-7.823-0.451-15.727-0.006-23.603l-75.185-46.897 41.478-100.212 86.347 19.947c5.213-5.836 10.799-11.421 16.681-16.678l-20.016-86.362 100.192-41.522 46.943 75.171c7.843-0.444 15.728-0.442 23.603 0.004l46.89-75.188 100.222 41.483-19.947 86.303c5.839 5.213 11.428 10.805 16.688 16.698l86.342-19.992 41.53 100.182-75.186 46.95c0.452 7.838 0.455 15.745 0.008 23.604l75.183 46.897-41.483 100.224-86.33-20c-5.222 5.851-10.809 11.436-16.682 16.676l20.024 86.36-100.186 41.523-46.959-75.136c-7.837 0.45-15.724 0.452-23.61 0.006l-46.893 75.186zM247.695 614.316l76.196 31.537 44.916-72.017 4.65 0.368c10.156 0.804 20.468 0.801 30.532-0.010l4.651-0.374 44.986 71.978 76.166-31.567-19.182-82.728 3.552-3.028c7.75-6.606 15.011-13.865 21.579-21.574l3.027-3.553 82.693 19.157 31.536-76.192-72.020-44.924 0.371-4.652c0.809-10.148 0.805-20.416-0.011-30.52l-0.377-4.655 72.026-44.977-31.573-76.162-82.703 19.149-3.027-3.546c-6.645-7.785-13.909-15.052-21.592-21.598l-3.549-3.024 19.106-82.664-76.195-31.538-44.916 72.022-4.651-0.369c-10.138-0.806-20.457-0.807-30.533-0.004l-4.649 0.37-44.964-72.005-76.168 31.567 19.171 82.717-3.543 3.028c-7.772 6.64-15.035 13.904-21.587 21.587l-3.024 3.547-82.704-19.105-31.534 76.187 72.017 44.922-0.368 4.649c-0.807 10.179-0.803 20.449 0.009 30.523l0.376 4.654-72.026 44.98 31.575 76.163 82.703-19.149 3.027 3.546c6.646 7.785 13.911 15.052 21.592 21.6l3.548 3.024-19.106 82.663zM320.704 635.933l-63.742-26.385 18.729-81.061-1.984-1.566c-11.137-8.773-21.352-18.988-30.36-30.358l-1.56-1.968-81.090 18.78-26.412-63.733 70.622-44.1-0.297-2.498c-1.686-14.201-1.689-28.648-0.010-42.938l0.293-2.495-70.628-44.045 26.389-63.755 81.097 18.743 1.562-1.976c8.835-11.197 19.047-21.412 30.349-30.356l1.975-1.566-18.801-81.102 63.721-26.426 44.097 70.618 2.502-0.293c14.171-1.668 28.759-1.673 42.935-0.009l2.503 0.296 44.043-70.616 63.743 26.384-18.728 81.055 1.979 1.559c11.163 8.803 21.377 19.021 30.365 30.372l1.558 1.965 81.094-18.779 26.408 63.729-70.62 44.101 0.297 2.493c1.688 14.234 1.692 28.679 0.013 42.938l-0.291 2.495 70.618 44.051-26.385 63.748-81.075-18.787-1.562 1.983c-8.817 11.18-19.030 21.397-30.36 30.374l-1.973 1.563 18.803 81.089-63.723 26.424-44.113-70.575-2.506 0.292c-14.144 1.663-28.726 1.668-42.917 0.005l-2.509-0.298-44.050 70.626zM274.844 600.336l39.717 16.441 42.328-67.862 12.173 1.446c12.982 1.522 26.356 1.521 39.334-0.007l12.159-1.417 42.371 67.789 39.706-16.465-18.059-77.888 9.588-7.596c10.395-8.237 19.76-17.605 27.836-27.844l7.587-9.635 77.896 18.051 16.437-39.715-67.834-42.315 1.416-12.157c1.538-13.074 1.536-26.307-0.009-39.34l-1.452-12.162 67.86-42.378-16.455-39.71-77.887 18.037-7.593-9.577c-8.25-10.419-17.613-19.788-27.835-27.849l-9.625-7.582 17.993-77.878-39.717-16.439-42.317 67.849-12.168-1.441c-12.975-1.521-26.352-1.519-39.35 0.011l-12.161 1.423-42.359-67.834-39.7 16.465 18.058 77.899-9.591 7.604c-10.372 8.208-19.734 17.573-27.833 27.837l-7.593 9.607-77.902-18.006-16.443 39.727 67.851 42.313-1.428 12.159c-1.538 13.097-1.536 26.332 0.008 39.338l1.446 12.168-67.855 42.373 16.458 39.712 77.883-18.037 7.594 9.578c8.267 10.433 17.632 19.801 27.835 27.839l9.623 7.598-17.993 77.868zM328.648 660.691l-94.805-39.239 19.753-85.456c-6.801-5.948-13.274-12.426-19.297-19.305l-85.494 19.797-39.288-94.767 74.448-46.492c-0.611-9.023-0.613-18.18-0.008-27.29l-74.447-46.436 39.236-94.795 85.498 19.749c5.955-6.802 12.427-13.274 19.29-19.287l-19.821-85.513 94.775-39.276 46.482 74.431c9.047-0.603 18.204-0.602 27.291 0.002l46.431-74.449 94.805 39.24-19.749 85.454c6.801 5.951 13.276 12.428 19.295 19.306l85.494-19.794 39.288 94.765-74.45 46.491c0.612 9.058 0.617 18.216 0.008 27.293l74.445 46.436-39.239 94.806-85.479-19.802c-5.974 6.826-12.447 13.298-19.292 19.283l19.826 85.515-94.768 39.277-46.5-74.401c-9.045 0.611-18.204 0.615-27.298 0.007l-46.431 74.45zM243.663 616.393l81.611 33.78 45.355-72.722 2.555 0.202c10.347 0.819 20.804 0.817 31.082-0.007l2.555-0.204 45.422 72.678 81.58-33.812-19.369-83.535 1.95-1.661c7.885-6.717 15.278-14.108 21.972-21.963l1.66-1.951 83.495 19.344 33.779-81.61-72.72-45.36 0.203-2.555c0.822-10.322 0.819-20.779-0.010-31.075l-0.205-2.557 72.727-45.415-33.82-81.576-83.513 19.335-1.658-1.946c-6.767-7.926-14.16-15.321-21.978-21.984l-1.951-1.661 19.294-83.471-81.614-33.778-45.353 72.722-2.553-0.202c-10.34-0.819-20.798-0.821-31.081-0.003l-2.553 0.203-45.402-72.707-81.584 33.81 19.358 83.525-1.946 1.664c-7.907 6.753-15.299 14.147-21.972 21.971l-1.659 1.948-83.513-19.292-33.776 81.601 72.719 45.361-0.201 2.553c-0.82 10.37-0.818 20.826 0.008 31.076l0.206 2.555-72.726 45.418 33.82 81.578 83.511-19.337 1.66 1.948c6.767 7.928 14.161 15.322 21.979 21.983l1.949 1.662-19.295 83.468zM319.321 631.616l-58.328-24.144 18.564-80.344-3.703-2.923c-10.933-8.613-20.959-18.637-29.792-29.791l-2.923-3.686-80.366 18.613-24.168-58.319 69.999-43.711-0.555-4.677c-1.654-13.933-1.657-28.107-0.009-42.127l0.547-4.671-70-43.657 24.145-58.337 80.378 18.578 2.92-3.697c8.672-10.99 18.692-21.013 29.779-29.789l3.695-2.928-18.633-80.382 58.308-24.179 43.706 69.989 4.679-0.546c13.985-1.645 28.159-1.65 42.131-0.011l4.679 0.553 43.652-69.991 58.329 24.143-18.565 80.34 3.7 2.916c10.953 8.639 20.977 18.665 29.797 29.803l2.918 3.682 80.369-18.61 24.166 58.315-70.002 43.711 0.56 4.675c1.656 13.952 1.659 28.124 0.012 42.123l-0.544 4.676 69.991 43.659-24.139 58.33-80.362-18.621-2.92 3.709c-8.644 10.959-18.667 20.986-29.793 29.802l-3.688 2.922 18.632 80.368-58.305 24.176-43.719-69.944-4.682 0.546c-13.951 1.641-28.12 1.641-42.111 0.007l-4.687-0.559-43.662 70.006zM270.813 602.412l45.134 18.683 42.716-68.483 9.991 1.184c13.333 1.563 26.843 1.558 40.146-0.006l9.984-1.164 42.763 68.414 45.118-18.71-18.227-78.61 7.869-6.234c10.615-8.409 20.168-17.97 28.404-28.414l6.231-7.912 78.614 18.218 18.682-45.131-68.467-42.709 1.163-9.98c1.571-13.346 1.567-26.852-0.009-40.148l-1.191-9.985 68.483-42.765-18.699-45.124-78.608 18.203-6.234-7.862c-8.414-10.628-17.969-20.187-28.404-28.418l-7.901-6.223 18.159-78.592-45.132-18.682-42.706 68.471-9.987-1.182c-13.313-1.562-26.828-1.559-40.161 0.010l-9.983 1.167-42.752-68.461-45.116 18.71 18.225 78.622-7.874 6.244c-10.577 8.371-20.132 17.929-28.401 28.405l-6.233 7.888-78.621-18.172-18.686 45.145 68.478 42.701-1.172 9.981c-1.57 13.366-1.567 26.873 0.007 40.149l1.19 9.989-68.482 42.764 18.701 45.128 78.607-18.207 6.234 7.866c8.429 10.637 17.985 20.196 28.405 28.407l7.899 6.233-18.159 78.592zM331.72 670.27l-106.818-44.212 20.195-87.367c-4.67-4.271-9.185-8.789-13.489-13.497l-87.402 20.24-44.267-106.778 76.108-47.531c-0.286-6.323-0.288-12.71-0.004-19.077l-76.11-47.474 44.209-106.808 87.411 20.192c4.273-4.67 8.785-9.182 13.482-13.477l-20.263-87.425 106.787-44.253 47.521 76.096c6.34-0.281 12.714-0.282 19.074 0.002l47.468-76.112 106.819 44.212-20.192 87.367c4.673 4.276 9.188 8.794 13.489 13.497l87.402-20.237 44.267 106.775-76.11 47.528c0.288 6.349 0.29 12.736 0.006 19.082l76.106 47.472-44.213 106.822-87.391-20.245c-4.282 4.682-8.796 9.192-13.48 13.475l20.268 87.424-106.778 44.254-47.538-76.061c-6.347 0.29-12.724 0.291-19.087 0.005l-47.468 76.115zM279.753 597.808l33.123 13.711 41.854-67.099 14.827 1.758c12.647 1.482 25.685 1.481 38.347-0.007l14.814-1.728 41.892 67.021 33.11-13.731-17.856-77.011 11.677-9.251c10.138-8.032 19.27-17.167 27.143-27.151l9.244-11.736 77.025 17.848 13.708-33.116-67.076-41.84 1.727-14.809c1.501-12.754 1.499-25.656-0.008-38.355l-1.767-14.818 67.102-41.902-13.723-33.113-77.004 17.831-9.251-11.664c-8.049-10.165-17.179-19.302-27.144-27.162l-11.722-9.233 17.792-77.003-33.12-13.709-41.843 67.088-14.824-1.754c-12.642-1.483-25.683-1.481-38.362 0.011l-14.815 1.733-41.881-67.069-33.106 13.73 17.854 77.019-11.68 9.261c-10.115 8.004-19.246 17.136-27.143 27.145l-9.25 11.706-77.023-17.804-13.713 33.131 67.090 41.836-1.739 14.813c-1.5 12.768-1.498 25.671 0.007 38.35l1.765 14.823-67.1 41.902 13.724 33.117 77.003-17.835 9.251 11.672c8.061 10.173 17.192 19.306 27.142 27.146l11.722 9.25-17.792 76.997zM357.482 456.881c-41.548-17.198-61.358-64.998-44.164-106.54 17.197-41.544 64.992-61.362 106.541-44.165 41.545 17.196 61.354 64.995 44.159 106.539-17.196 41.542-64.991 61.361-106.537 44.166zM415.404 316.941c-35.615-14.74-76.576 2.238-91.318 37.854-14.741 35.615 2.237 76.581 37.852 91.322 35.611 14.739 76.577-2.244 91.318-37.857 14.74-35.617-2.241-76.579-37.852-91.318zM388.557 470.753c-11.694 0-23.138-2.281-34.010-6.782-45.458-18.816-67.134-71.108-48.32-116.567 13.856-33.474 46.26-55.103 82.553-55.103 11.696 0 23.141 2.282 34.015 6.784 45.456 18.814 67.131 71.105 48.316 116.566-13.857 33.473-46.261 55.103-82.555 55.103zM388.76 319.302c-25.318 0-47.921 15.084-57.584 38.43-6.345 15.33-6.331 32.241 0.041 47.615 6.373 15.373 18.324 27.336 33.655 33.681 7.582 3.138 15.557 4.73 23.704 4.73 25.32 0.002 47.925-15.082 57.589-38.431 13.12-31.703-1.995-68.171-33.697-81.292-7.584-3.139-15.562-4.732-23.708-4.732zM353.515 466.467c-46.836-19.386-69.166-73.26-49.782-120.096 19.387-46.836 73.261-69.166 120.096-49.78 46.833 19.383 69.162 73.256 49.777 120.092-19.385 46.835-73.257 69.167-120.089 49.783zM411.436 326.527c-30.327-12.552-65.213 1.909-77.767 32.236-12.552 30.329 1.907 65.215 32.235 77.767 30.325 12.552 65.211-1.909 77.765-32.239 12.552-30.328-1.907-65.213-32.233-77.765zM388.547 481.129c-13.055 0-25.829-2.547-37.968-7.571-50.744-21.004-74.941-79.375-53.939-130.121 15.468-37.367 51.637-61.51 92.15-61.51 13.057 0 25.833 2.548 37.973 7.573 24.544 10.158 43.677 29.302 53.875 53.904s10.218 51.668 0.058 76.215c-15.467 37.367-51.637 61.511-92.149 61.511zM388.79 297.276c-34.28 0-64.882 20.423-77.967 52.030-17.766 42.925 2.703 92.302 45.626 110.068 10.268 4.25 21.067 6.405 32.098 6.405 34.28 0 64.882-20.423 77.965-52.032 8.592-20.757 8.572-43.652-0.054-64.467-8.628-20.814-24.81-37.008-45.566-45.598-10.268-4.25-21.070-6.406-32.102-6.406zM388.596 448.731c-0.003 0-0.002 0-0.006 0-8.812 0-17.431-1.719-25.619-5.108-34.238-14.17-50.562-53.555-36.392-87.795 10.436-25.21 34.839-41.501 62.171-41.501 8.811 0 17.431 1.719 25.622 5.108 34.237 14.17 50.56 53.553 36.39 87.792-10.437 25.211-34.839 41.504-62.167 41.504zM388.75 329.676c-21.1 0-39.936 12.569-47.989 32.022-10.934 26.42 1.661 56.808 28.079 67.742 6.317 2.616 12.963 3.941 19.75 3.942 0.001 0 0.003 0 0.004 0 21.097 0 39.931-12.57 47.984-32.024 10.934-26.419-1.661-56.806-28.077-67.739-6.32-2.617-12.965-3.943-19.751-3.943zM665.383 908.292l-55.363-30.675 19.201-54.162c-4.762-5.099-9.149-10.615-13.1-16.479l-57.127 6.54-17.455-60.825 51.916-24.743c0.232-6.999 1.032-14.007 2.377-20.913l-45.018-35.756 30.67-55.355 54.19 19.204c5.113-4.774 10.623-9.154 16.469-13.098l-6.556-57.14 60.828-17.448 24.738 51.903c7.015 0.241 14.018 1.043 20.913 2.385l35.752-45.018 55.364 30.672-19.204 54.169c4.765 5.097 9.152 10.613 13.103 16.477l57.127-6.543 17.455 60.826-51.917 24.74c-0.233 7.004-1.027 14.005-2.377 20.916l45.019 35.755-30.674 55.362-54.176-19.235c-5.103 4.766-10.616 9.156-16.471 13.093l6.561 57.143-60.826 17.449-24.75-51.887c-7.024-0.233-14.022-1.033-20.917-2.379l-35.752 45.022zM628.954 870.448l32.468 17.992 33.648-42.369 4.764 1.126c8.873 2.073 17.989 3.116 27.1 3.083l4.89-0.012 23.288 48.818 35.676-10.241-6.172-53.745 4.15-2.583c7.809-4.857 14.993-10.574 21.354-16.988l3.453-3.487 50.975 18.104 17.988-32.468-42.359-33.646 1.114-4.763c2.091-8.896 3.125-18.007 3.082-27.096l-0.025-4.894 48.857-23.283-10.234-35.677-53.743 6.158-2.581-4.149c-4.867-7.827-10.582-15.010-16.983-21.357l-3.479-3.448 18.064-50.968-32.469-17.988-33.642 42.361-4.763-1.121c-8.878-2.083-17.998-3.118-27.107-3.087l-4.892 0.017-23.276-48.847-35.675 10.243 6.17 53.752-4.159 2.587c-7.78 4.837-14.969 10.559-21.346 16.981l-3.448 3.471-50.987-18.073-17.992 32.474 42.367 33.64-1.117 4.764c-2.086 8.898-3.127 18.013-3.083 27.097l0.022 4.898-48.856 23.283 10.236 35.674 53.741-6.153 2.582 4.149c4.867 7.826 10.582 15.008 16.984 21.353l3.476 3.452-18.062 50.967zM742.672 926.706l-25.577-53.622c-4.274-0.289-8.552-0.776-12.796-1.457l-36.95 46.528-66.736-36.976 19.846-55.98c-2.812-3.223-5.49-6.594-8.011-10.080l-59.040 6.759-21.041-73.321 53.652-25.569c0.288-4.265 0.775-8.539 1.456-12.789l-46.525-36.955 36.97-66.727 56.009 19.847c3.22-2.81 6.588-5.486 10.069-8.007l-6.776-59.056 73.326-21.032 25.567 53.642c4.268 0.292 8.544 0.78 12.787 1.459l36.95-46.526 66.737 36.973-19.847 55.984c2.812 3.22 5.491 6.592 8.013 10.079l59.038-6.762 21.042 73.322-53.653 25.567c-0.288 4.276-0.774 8.554-1.454 12.793l46.526 36.953-36.977 66.737-55.992-19.881c-3.229 2.817-6.595 5.493-10.069 8.003l6.78 59.056-73.322 21.038zM698.027 854.844l4.579 0.895c6.499 1.268 13.128 2.022 19.701 2.241l4.663 0.156 23.962 50.232 48.33-13.865-6.352-55.322 3.874-2.606c5.475-3.682 10.695-7.831 15.517-12.334l3.41-3.184 52.444 18.619 24.37-43.988-43.581-34.613 0.894-4.579c1.267-6.488 2.018-13.116 2.237-19.7l0.156-4.665 50.263-23.951-13.869-48.33-55.303 6.335-2.605-3.867c-3.711-5.509-7.864-10.732-12.344-15.523l-3.186-3.409 18.59-52.439-43.99-24.371-34.608 43.579-4.577-0.892c-6.508-1.267-13.139-2.022-19.71-2.249l-4.658-0.16-23.947-50.243-48.33 13.863 6.346 55.311-3.863 2.606c-5.501 3.711-10.725 7.865-15.525 12.346l-3.408 3.18-52.458-18.589-24.369 43.984 43.579 34.613-0.892 4.576c-1.269 6.521-2.022 13.149-2.24 19.701l-0.154 4.665-50.263 23.955 13.87 48.329 55.303-6.332 2.605 3.867c3.709 5.505 7.862 10.731 12.344 15.53l3.182 3.408-18.587 52.43 43.99 24.373 34.612-43.584zM750.984 908.255l-24.031-50.301-0.436 0.001c-9.536 0-19.102-1.105-28.431-3.286l-0.039-0.009-34.66 43.643-43.839-24.293 18.608-52.509-0.025-0.025c-6.827-6.767-12.916-14.421-18.094-22.747l-0.016-0.026-55.374 6.34-13.821-48.169 50.329-24.013c-0.046-9.667 1.059-19.386 3.286-28.883l0.007-0.028-43.647-34.658 24.292-43.846 52.552 18.599c6.808-6.856 14.458-12.942 22.738-18.089l0.032-0.020-6.356-55.383 48.172-13.831 24.009 50.326 0.422-0.001c9.579 0 19.155 1.107 28.463 3.292l0.029 0.007 34.657-43.638 43.841 24.288-18.608 52.507 0.022 0.022c6.834 6.777 12.923 14.433 18.097 22.755l0.015 0.024 55.375-6.345 13.818 48.175-50.326 24.004c0.046 9.698-1.059 19.417-3.285 28.891l-0.006 0.022 43.642 34.666-24.29 43.843-52.534-18.627c-6.787 6.844-14.442 12.933-22.754 18.104l-0.025 0.016 6.358 55.378-48.169 13.826zM736.661 842.58l22.582 47.334 23.18-6.654-5.983-52.112 8.273-5.149c7.301-4.541 14.017-9.883 19.961-15.877l6.878-6.945 49.437 17.559 11.686-21.092-41.076-32.628 2.22-9.496c1.952-8.308 2.92-16.822 2.88-25.313l-0.051-9.762 47.388-22.583-6.65-23.18-52.109 5.971-5.146-8.273c-4.545-7.311-9.885-14.026-15.87-19.961l-6.935-6.873 17.519-49.43-21.097-11.688-32.63 41.084-9.502-2.237c-8.154-1.913-16.551-2.884-24.952-2.884l-10.124 0.035-22.571-47.367-23.176 6.655 5.981 52.119-8.284 5.153c-7.271 4.521-13.984 9.86-19.954 15.872l-6.875 6.922-49.443-17.527-11.691 21.101 41.086 32.624-2.229 9.502c-1.95 8.326-2.92 16.841-2.88 25.308l0.045 9.769-47.383 22.581 6.651 23.177 52.106-5.966 5.147 8.272c4.548 7.313 9.889 14.027 15.871 19.958l6.932 6.881-17.515 49.426 21.097 11.691 32.637-41.095 9.508 2.248c8.166 1.908 16.556 2.878 24.918 2.878l10.142-0.027zM666.098 911.881l-59.502-32.964 19.429-54.811c-4.033-4.428-7.809-9.18-11.261-14.163l-57.802 6.618-18.762-65.376 52.53-25.034c0.276-5.988 0.961-12.021 2.044-17.977l-45.551-36.182 32.964-59.494 54.836 19.431c4.433-4.034 9.182-7.813 14.154-11.257l-6.632-57.816 65.377-18.757 25.029 52.521c6.006 0.282 12.036 0.972 17.977 2.053l36.174-45.554 59.503 32.967-19.428 54.806c4.034 4.433 7.814 9.185 11.26 14.167l57.803-6.618 18.765 65.374-52.532 25.033c-0.278 6.015-0.964 12.047-2.046 17.978l45.549 36.182-32.964 59.504-54.822-19.464c-4.447 4.046-9.195 7.824-14.155 11.253l6.638 57.819-65.376 18.755-25.042-52.5c-6.004-0.278-12.036-0.963-17.981-2.046l-36.176 45.552zM613.443 876.322l51.221 28.379 35.337-44.498 1.668 0.323c6.754 1.319 13.642 2.102 20.473 2.332l1.7 0.057 24.462 51.285 56.276-16.145-6.486-56.48 1.41-0.948c5.696-3.836 11.121-8.148 16.123-12.82l1.241-1.158 53.545 19.012 28.379-51.22-44.496-35.339 0.326-1.669c1.316-6.739 2.099-13.625 2.328-20.471l0.056-1.699 51.315-24.452-16.149-56.276-56.463 6.462-0.948-1.404c-3.861-5.733-8.175-11.157-12.825-16.133l-1.162-1.242 18.979-53.533-51.223-28.384-35.336 44.499-1.664-0.325c-6.75-1.316-13.64-2.102-20.475-2.338l-1.696-0.056-24.447-51.302-56.278 16.144 6.479 56.473-1.408 0.95c-5.716 3.856-11.138 8.169-16.124 12.826l-1.24 1.157-53.563-18.981-28.374 51.216 44.493 35.342-0.323 1.665c-1.32 6.769-2.101 13.655-2.329 20.469l-0.054 1.699-51.319 24.455 16.153 56.273 56.462-6.462 0.947 1.407c3.861 5.731 8.178 11.158 12.827 16.132l1.16 1.241-18.978 53.538zM662.138 892.028l-36.608-20.285 18.262-51.53-2.22-2.201c-6.555-6.497-12.404-13.851-17.386-21.862l-1.648-2.647-54.338 6.224-11.54-40.226 49.392-23.537-0.015-3.124c-0.043-9.304 1.020-18.638 3.157-27.751l0.712-3.038-42.833-34.011 20.287-36.617 51.548 18.277 2.201-2.217c6.538-6.589 13.89-12.437 21.854-17.385l2.652-1.653-6.233-54.345 40.22-11.548 23.535 49.383 3.122-0.007c9.336-0.033 18.675 1.027 27.754 3.157l3.042 0.717 34.009-42.826 36.609 20.282-18.261 51.529 2.219 2.197c6.564 6.513 12.414 13.87 17.388 21.869l1.647 2.648 54.339-6.225 11.537 40.227-49.393 23.535 0.017 3.121c0.041 9.318-1.020 18.652-3.154 27.752l-0.712 3.036 42.829 34.015-20.286 36.608-51.536-18.299-2.201 2.224c-6.517 6.57-13.871 12.422-21.862 17.391l-2.648 1.651 6.238 54.34-40.224 11.544-23.548-49.356-3.124 0.008c-9.312 0.034-18.647-1.029-27.739-3.159l-3.045-0.717-34.018 42.829zM632.377 869.152l28.328 15.693 33.279-41.902 6.494 1.53c8.663 2.033 17.564 3.043 26.444 3.012l6.662-0.017 23.032 48.277 31.125-8.936-6.102-53.151 5.654-3.514c7.62-4.742 14.632-10.324 20.842-16.584l4.7-4.744 50.416 17.904 15.695-28.325-41.895-33.277 1.518-6.488c2.036-8.673 3.050-17.568 3.008-26.444l-0.033-6.667 48.32-23.027-8.928-31.128-53.148 6.088-3.517-5.648c-4.742-7.631-10.319-14.648-16.574-20.853l-4.739-4.691 17.864-50.408-28.326-15.694-33.274 41.896-6.489-1.527c-8.651-2.028-17.557-3.044-26.455-3.011l-6.662 0.020-23.020-48.304-31.124 8.934 6.103 53.155-5.659 3.522c-7.593 4.721-14.607 10.298-20.839 16.577l-4.7 4.731-50.423-17.876-15.699 28.334 41.902 33.271-1.522 6.485c-2.038 8.689-3.051 17.587-3.010 26.45l0.035 6.668-48.322 23.026 8.932 31.132 53.146-6.094 3.513 5.649c4.756 7.646 10.332 14.657 16.577 20.847l4.739 4.699-17.866 50.408zM741.169 930.044l-25.897-54.293c-3.268-0.259-6.541-0.63-9.793-1.114l-37.413 47.108-70.876-39.265 20.093-56.686c-2.118-2.486-4.166-5.063-6.129-7.712l-59.778 6.845-22.348-77.872 54.323-25.888c0.259-3.262 0.63-6.534 1.114-9.787l-47.108-37.418 39.266-70.866 56.713 20.095c2.489-2.122 5.063-4.169 7.702-6.126l-6.859-59.793 77.874-22.343 25.885 54.318c3.265 0.26 6.536 0.634 9.787 1.118l37.41-47.11 70.877 39.269-20.093 56.684c2.126 2.496 4.175 5.073 6.131 7.714l59.776-6.844 22.352 77.87-54.327 25.888c-0.259 3.271-0.63 6.542-1.113 9.788l47.105 37.418-39.266 70.88-56.699-20.131c-2.498 2.128-5.069 4.174-7.7 6.123l6.865 59.793-77.873 22.338zM738.421 839.782l22.324 46.794 18.631-5.349-5.916-51.521 9.782-6.081c7.108-4.422 13.651-9.629 19.445-15.471l8.126-8.202 48.877 17.359 9.392-16.95-40.612-32.257 2.625-11.221c1.901-8.095 2.845-16.39 2.807-24.661l-0.056-11.535 46.849-22.326-5.344-18.632-51.51 5.9-6.084-9.767c-4.432-7.131-9.633-13.675-15.465-19.462l-8.196-8.111 17.32-48.873-16.955-9.393-32.258 40.618-11.229-2.643c-7.943-1.862-16.114-2.808-24.279-2.808l-11.917 0.035-22.315-46.822-18.627 5.347 5.917 51.523-9.784 6.088c-7.094 4.411-13.636 9.614-19.447 15.468l-8.131 8.182-48.877-17.329-9.398 16.961 40.623 32.255-2.635 11.223c-1.899 8.101-2.844 16.399-2.807 24.66l0.060 11.535-46.852 22.325 5.346 18.636 51.513-5.905 6.080 9.773c4.437 7.133 9.639 13.678 15.462 19.45l8.197 8.126-17.321 48.867 16.957 9.393 32.267-40.626 11.234 2.647c7.938 1.863 16.112 2.809 24.289 2.809l11.894-0.028zM700.397 779.795c-26.079-14.448-35.536-47.422-21.091-73.495 14.449-26.076 47.419-35.537 73.495-21.092 26.076 14.451 35.535 47.422 21.087 73.5-14.446 26.070-47.419 35.536-73.492 21.088zM749.060 691.966c-22.353-12.385-50.611-4.28-62.996 18.076-12.384 22.354-4.276 50.614 18.077 62.997 22.352 12.383 50.611 4.271 62.996-18.078 12.383-22.356 4.272-50.614-18.077-62.995zM726.505 794.233c-10.391 0-20.706-2.672-29.828-7.727-29.778-16.496-40.583-54.146-24.084-83.928 10.872-19.622 31.602-31.81 54.101-31.81 10.391 0 20.706 2.671 29.827 7.724 29.777 16.501 40.581 54.154 24.083 83.932-10.874 19.62-31.603 31.808-54.1 31.808zM726.675 693.841c-14.102 0-27.091 7.633-33.899 19.921-10.333 18.651-3.568 42.232 15.082 52.565 5.709 3.163 12.161 4.835 18.659 4.836 0.001 0 0.002 0 0.003 0 14.102 0 27.092-7.633 33.903-19.921 10.331-18.65 3.565-42.231-15.083-52.562-5.713-3.166-12.167-4.839-18.665-4.839zM697.063 785.811c-29.395-16.286-40.058-53.449-23.773-82.847 16.288-29.394 53.453-40.057 82.849-23.772 29.392 16.287 40.057 53.448 23.768 82.845-16.285 29.394-53.451 40.060-82.845 23.774zM745.726 697.98c-19.033-10.545-43.1-3.638-53.647 15.397-10.545 19.036-3.637 43.101 15.395 53.647 19.033 10.545 43.099 3.637 53.646-15.396 10.545-19.034 3.64-43.1-15.394-53.647zM726.495 801.111c-11.55 0-23.014-2.969-33.152-8.587-33.095-18.335-45.103-60.18-26.767-93.278 12.083-21.807 35.122-35.354 60.127-35.354 11.551 0 23.015 2.97 33.155 8.587 33.094 18.338 45.1 60.182 26.763 93.278-12.083 21.808-35.122 35.355-60.127 35.355zM726.703 679.242c-19.427 0-37.321 10.515-46.701 27.442-14.234 25.695-4.913 58.18 20.779 72.413 7.868 4.359 16.76 6.664 25.714 6.664 19.426 0 37.321-10.515 46.699-27.443 14.236-25.692 4.915-58.177-20.776-72.413-7.868-4.357-16.761-6.663-25.716-6.663zM726.532 779.636c-0.001 0-0.002 0-0.003 0-7.936 0-15.811-2.040-22.775-5.897-22.734-12.598-30.983-41.344-18.389-64.080 8.302-14.982 24.127-24.289 41.302-24.289 7.936 0 15.812 2.040 22.777 5.898 22.734 12.598 30.983 41.344 18.388 64.081-8.303 14.98-24.128 24.287-41.301 24.287zM726.669 700.719c-11.597 0-22.279 6.276-27.876 16.378-8.494 15.332-2.931 34.718 12.401 43.215 4.693 2.6 9.997 3.975 15.337 3.975 11.596 0.001 22.278-6.274 27.877-16.377 8.494-15.332 2.932-34.717-12.401-43.215-4.694-2.6-9.997-3.976-15.338-3.976z" p-id="5650"></path></svg>