<?xml version="1.0" standalone="no"?><!DOCTYPE svg PUBLIC "-//W3C//DTD SVG 1.1//EN" "http://www.w3.org/Graphics/SVG/1.1/DTD/svg11.dtd"><svg t="1583824258222" class="icon" viewBox="0 0 1024 1024" version="1.1" xmlns="http://www.w3.org/2000/svg" p-id="11921" xmlns:xlink="http://www.w3.org/1999/xlink" width="200" height="200"><defs><style type="text/css"></style></defs><path d="M744.6016 148.9152l-159.9488 159.2832-62.5408 62.2336-56.3712 56.064c-16.9728 16.9216-64.4352 62.976-75.776 74.496-11.3152 11.52-18.5088 18.816-21.6064 21.888-7.1936 7.168-12.7232 13.696-16.5888 19.6096-3.84 5.888-7.3472 12.416-10.4192 19.584-2.56 4.608-5.9136 13.056-10.0352 25.344s-8.3712 25.728-12.7488 40.3456c-4.352 14.592-8.4992 28.672-12.3392 42.24-3.8656 13.568-6.3232 23.936-7.3472 31.1296-2.048 13.312-0.768 22.784 3.84 28.416 4.6592 5.632 13.9264 7.68 27.8016 6.144 6.7072-1.024 16.8704-3.328 30.5152-6.912 13.6448-3.584 28.032-7.808 43.2128-12.672a1083.904 1083.904 0 0 0 43.648-14.976c13.8752-5.12 24.4224-9.472 31.6416-13.056 7.1936-3.072 14.1568-7.168 20.8384-12.288 6.7072-5.12 12.6208-9.984 17.7664-14.592 2.048-1.536 8.4992-7.7056 19.3024-18.4576s24.448-24.4736 40.9088-41.1136c16.4608-16.64 68.3008-66.7904 88.8832-86.784l61.7728-62.208 161.2032-162.8928-145.6128-140.8zM640.512 487.296l-38.6048 37.1712c-12.8768 11.9296-45.2864 41.856-55.552 51.7888-10.3168 9.9328-18.8416 18.1248-25.6 24.5504a203.52 203.52 0 0 1-23.168 19.712c-4.1728 3.072-8.5248 5.504-13.0304 7.3472a216.3968 216.3968 0 0 1-19.7888 7.808c-8.704 3.0464-17.7664 6.016-27.264 8.9344-9.472 2.8928-18.5088 5.4272-27.0336 7.552a212.0704 212.0704 0 0 1-19.072 4.1472c-8.6784 0.9216-14.464-0.3072-17.3568-3.6608-2.8928-3.3792-3.712-9.0368-2.4064-16.9728 0.64-4.3008 2.1504-10.496 4.5824-18.5856 2.4064-8.1152 4.9664-16.512 7.7056-25.2416 2.7392-8.704 5.376-16.7168 7.9616-24.064 2.5856-7.3472 4.6848-12.3904 6.272-15.1296 1.9456-4.3008 4.096-8.192 6.528-11.6992 2.4064-3.5072 5.888-7.424 10.368-11.6992 1.9456-1.8432 6.4512-6.1952 13.5168-13.056 7.0912-6.912 304.3328-291.5072 304.3328-291.5072l91.264 86.144-183.6544 176.4608z" fill="#1B7AFF" p-id="11922"></path><path d="M938.496 396.8256v373.1968-0.8704 30.3616c0 78.6432-66.944 142.6432-149.1968 142.6432H235.4432c-82.2528 0-149.2224-64-149.2224-142.6432V251.5456v2.0992-29.4912c0-78.6688 66.9696-142.6432 149.2224-142.6432h365.2864L701.7728 0.0512h-33.3056V0H235.4432C109.9776 0 7.168 94.72 1.2288 213.3248h-0.256V810.3424h0.256c5.9392 118.5792 108.7488 213.2992 234.2144 213.2992h553.856c125.4656 0 228.2752-94.72 234.2144-213.2992h0.256V316.7744l-85.248 80.0512zM918.2976 33.3568a47.3344 47.3344 0 0 0-13.824-2.5088c4.7104 0.3072 9.2928 1.152 13.824 2.5088z" fill="#1B7AFF" p-id="11923"></path><path d="M1010.2784 136.0384c0.8448-14.3872-3.1488-30.208-11.5712-45.312a118.1952 118.1952 0 0 0-23.1424-29.1072c-17.3312-16-37.76-25.984-57.2672-29.44a110.1312 110.1312 0 0 0-13.824-1.3568h-2.3296a84.736 84.736 0 0 0-53.888 18.688c-7.0656 5.7344-15.872 13.5424-26.4704 23.424-10.5728 9.9072-19.712 18.3552-27.392 25.344l144.8448 140.8c4.5056-3.84 9.2928-8.32 14.4384-13.4144 4.48-4.4544 9.7792-9.5744 15.872-15.3088 6.0672-5.7344 12.9792-12.4416 20.6592-20.096 7.0656-7.68 12.1856-15.6416 15.4112-23.936a68.6592 68.6592 0 0 0 4.6592-30.2848z m-36.6848 19.84a51.9424 51.9424 0 0 1-10.5472 16.384c-5.248 5.2224-9.984 9.8048-14.1312 13.7216-4.1728 3.9424-7.7824 7.424-10.8544 10.496 3.072-2.6368-3.5072 3.4816 0 0l-100.0192-95.3856c5.2736-4.7872 2.56-2.3296 9.8048-9.088 7.2192-6.784 13.2608-12.1344 18.0736-16.0512a57.9584 57.9584 0 0 1 36.864-12.8 75.264 75.264 0 0 1 11.0592 0.9472 79.36 79.36 0 0 1 39.168 20.1472c6.656 6.1184 11.9296 12.9024 15.872 19.9168 5.76 10.3424 8.4736 21.1456 7.9104 31.0016l0.0768 3.6864c0 5.6832-1.1008 11.3664-3.2768 17.024z" fill="#1B7AFF" p-id="11924"></path></svg>